<?xml version="1.0" standalone="no"?>
<!DOCTYPE svg PUBLIC "-//W3C//DTD SVG 20010904//EN"
 "http://www.w3.org/TR/2001/REC-SVG-20010904/DTD/svg10.dtd">
<svg version="1.0" xmlns="http://www.w3.org/2000/svg"
 width="820.000000pt" height="819.000000pt" viewBox="0 0 820.000000 819.000000"
 preserveAspectRatio="xMidYMid meet">

<g transform="translate(0.000000,819.000000) scale(0.100000,-0.100000)"
fill="#000000" stroke="none">
<path d="M4290 8098 c0 -94 7 -128 25 -128 7 0 30 -14 51 -31 54 -43 116 -71
126 -56 5 8 13 4 28 -12 l20 -24 -6 31 c-5 23 -2 33 9 38 12 4 13 12 7 36 l-9
30 23 -24 c25 -25 38 -82 25 -113 l-8 -20 -1 20 c-1 17 -3 17 -12 -5 -6 -15
-12 -20 -15 -12 -7 17 -40 15 -47 -3 -3 -8 -11 -15 -18 -14 -10 0 -10 2 0 6
20 8 14 26 -8 20 -11 -3 -20 -1 -20 4 0 5 -4 8 -9 7 -5 -2 -24 8 -42 21 -28
21 -44 24 -97 23 -36 -1 -70 -6 -76 -11 -15 -12 -174 -6 -211 8 -42 17 -205
12 -227 -7 -9 -7 -21 -11 -27 -8 -10 7 -61 -13 -61 -24 0 -3 -9 -16 -21 -28
-11 -12 -17 -27 -14 -32 9 -14 -9 -12 -23 2 -9 9 -15 9 -24 0 -7 -7 -20 -12
-30 -12 -10 0 -18 -4 -18 -9 0 -5 -8 -12 -17 -14 -11 -3 -7 -5 10 -6 15 0 27
-5 27 -11 0 -5 16 -10 35 -10 25 0 35 -4 35 -15 0 -13 4 -14 21 -4 14 7 19 7
15 0 -4 -5 7 -17 23 -26 38 -19 51 -19 51 1 0 9 5 14 12 12 18 -6 19 -42 2
-55 -8 -6 -14 -15 -12 -19 2 -5 -37 -8 -87 -8 -51 0 -93 -5 -97 -11 -4 -5 -8
1 -8 15 0 19 -8 29 -32 39 -21 10 -33 11 -35 4 -3 -7 -24 -9 -55 -7 -29 3 -56
0 -64 -7 -10 -8 -17 -7 -29 5 -15 15 -15 16 2 18 24 2 35 4 53 11 8 3 32 8 52
12 21 3 40 11 44 17 4 6 3 8 -3 5 -6 -4 -13 2 -16 13 -5 21 -51 29 -62 10 -3
-5 -15 -10 -26 -10 -10 0 -19 -4 -19 -10 0 -5 -11 -10 -24 -10 -29 0 -82 -39
-53 -40 23 0 22 -20 -2 -20 -30 0 -52 -11 -45 -22 4 -6 1 -9 -7 -6 -17 6 -43
-18 -34 -32 4 -6 -8 -10 -29 -10 -20 0 -36 -5 -36 -11 0 -6 -6 -9 -12 -6 -7 2
-21 -5 -31 -16 -16 -19 -16 -21 0 -39 15 -16 12 -32 -5 -34 -20 -2 -41 -17
-36 -25 3 -5 -9 -9 -26 -9 -17 0 -40 -9 -53 -21 -17 -15 -18 -19 -4 -14 11 5
17 2 17 -7 0 -18 -27 -44 -60 -57 -19 -7 -20 -10 -7 -10 12 -1 16 -5 11 -13
-5 -8 0 -7 11 2 17 14 18 13 12 -2 -3 -10 -2 -20 3 -23 16 -10 12 -35 -5 -35
-8 0 -15 -6 -15 -12 -1 -16 -49 -52 -58 -43 -3 3 0 10 8 15 13 8 12 10 -2 10
-10 0 -18 -7 -18 -15 0 -7 -8 -19 -17 -24 -17 -10 -16 -10 2 -11 11 -1 14 -4
8 -7 -17 -6 -17 -33 0 -33 27 0 36 -21 16 -41 -20 -20 -49 -26 -49 -9 0 15
-33 12 -56 -5 -25 -19 -34 -19 -34 0 0 8 7 15 15 15 8 0 15 4 15 10 0 5 14 23
30 40 29 30 39 63 21 74 -10 7 -91 -50 -91 -64 0 -20 -51 -91 -62 -88 -13 5
-13 6 -23 209 -4 86 -10 183 -14 215 -6 58 -6 59 -36 55 -39 -4 -48 -10 -36
-25 5 -6 13 -106 17 -221 3 -116 10 -238 13 -273 6 -45 4 -70 -6 -89 -7 -14
-13 -31 -13 -38 0 -7 -6 -16 -12 -18 -10 -4 -10 -6 0 -6 18 -1 15 -31 -9 -80
-15 -33 -18 -46 -9 -56 9 -11 6 -20 -16 -40 -20 -18 -28 -36 -29 -61 0 -20 -7
-41 -15 -48 -31 -24 -67 -91 -65 -121 3 -41 4 -42 14 -26 5 7 14 11 20 7 7 -4
0 -18 -19 -36 -17 -16 -30 -36 -30 -45 0 -8 -4 -15 -10 -15 -11 0 -32 -69 -24
-82 3 -4 14 -8 25 -8 16 0 19 -4 13 -22 -6 -22 -6 -22 13 -5 29 25 43 21 43
-14 0 -30 -2 -31 -32 -25 -18 3 -44 8 -58 10 -50 9 -118 26 -142 35 -13 5 -80
19 -149 30 -68 12 -135 23 -149 27 -56 12 -150 17 -150 6 0 -13 54 -32 91 -32
16 0 86 -11 156 -24 71 -13 166 -29 212 -36 46 -6 113 -21 148 -33 66 -22 82
-42 70 -88 -3 -11 1 -35 8 -54 8 -18 15 -52 16 -76 2 -68 57 -280 84 -324 6
-11 20 -45 31 -75 10 -30 22 -57 25 -60 3 -3 9 -34 13 -69 3 -36 11 -68 18
-72 9 -6 9 -14 0 -34 -14 -29 -16 -65 -4 -65 4 0 14 -15 22 -32 7 -18 15 -37
18 -41 2 -5 -19 4 -46 20 -35 19 -54 25 -61 18 -12 -12 -16 -193 -6 -240 4
-16 10 -39 15 -50 5 -11 19 -48 32 -82 25 -68 43 -85 26 -27 -16 59 -1 155 44
277 20 56 21 57 40 40 16 -15 17 -18 3 -25 -17 -10 -21 -38 -5 -38 6 0 10 -7
10 -15 0 -21 39 -40 54 -25 8 8 7 18 -6 40 -9 17 -13 30 -8 30 12 0 32 -35 46
-82 11 -36 11 -38 -11 -38 -13 0 -27 -4 -30 -10 -3 -5 -19 -10 -35 -10 -21 0
-33 -8 -49 -35 -17 -30 -19 -42 -11 -89 9 -56 25 -96 38 -96 4 0 15 -14 24
-30 14 -25 23 -30 54 -30 30 0 35 3 29 18 -4 9 -9 25 -12 34 -8 25 16 120 34
141 16 17 19 15 50 -45 l32 -63 0 230 c1 127 6 277 12 335 28 275 45 380 61
380 5 0 20 26 34 58 36 83 46 102 56 102 5 0 16 7 24 15 18 17 50 20 59 5 3
-5 22 -10 41 -10 21 0 33 -4 29 -10 -3 -6 5 -10 19 -10 14 0 28 -5 31 -10 3
-6 17 -7 31 -4 14 4 31 1 39 -6 20 -16 267 -8 273 9 2 6 7 9 12 6 5 -3 15 2
23 10 12 11 17 12 20 2 4 -8 6 -8 6 -1 1 7 21 18 46 25 25 7 45 17 45 21 0 4
9 8 20 8 11 0 20 5 20 10 0 6 7 10 15 10 8 0 15 5 15 10 0 6 12 10 26 10 17 0
28 6 31 20 3 13 14 20 28 20 12 0 28 6 34 14 14 16 132 56 168 56 13 0 23 4
23 9 0 5 21 12 48 16 26 4 52 11 58 16 5 4 48 11 95 15 46 4 90 11 97 17 6 5
12 7 12 4 0 -4 19 1 42 9 71 25 448 38 456 15 2 -6 19 -11 38 -11 19 0 34 -4
34 -9 0 -10 48 -2 56 10 3 5 14 4 25 -2 17 -9 21 -7 26 10 7 26 20 27 26 4 4
-17 5 -16 6 0 1 16 6 17 34 12 17 -4 36 -11 42 -16 5 -5 17 -9 27 -9 13 0 18
-8 18 -26 0 -14 4 -23 10 -19 9 6 14 -8 11 -28 0 -4 5 -6 11 -5 8 2 14 -9 16
-27 3 -37 29 -127 49 -177 8 -20 12 -41 8 -48 -4 -6 -3 -16 2 -23 5 -7 11 -46
12 -87 1 -41 5 -78 7 -82 3 -4 1 -16 -5 -25 -8 -16 -11 -15 -20 10 -6 16 -11
34 -11 42 0 16 -44 62 -115 122 -50 42 -50 42 -115 36 -36 -3 -68 -10 -71 -14
-3 -5 -47 -12 -97 -15 -51 -4 -92 -11 -92 -15 0 -5 -18 -12 -40 -15 -22 -4
-43 -11 -46 -15 -3 -5 -16 -9 -29 -9 -13 0 -28 -6 -32 -14 -5 -9 -32 -17 -68
-21 -56 -5 -93 -10 -105 -14 -3 -1 2 -6 10 -11 12 -8 11 -10 -8 -10 -12 0 -25
-7 -28 -15 -4 -8 -12 -15 -18 -15 -7 0 -18 -12 -24 -26 -7 -15 -17 -22 -24
-18 -6 4 -8 3 -4 -4 3 -6 -1 -15 -11 -20 -9 -6 -17 -23 -18 -39 0 -16 -6 -27
-13 -25 -16 3 -16 -15 1 -21 13 -6 -17 -10 -47 -7 -11 1 -15 -3 -12 -9 4 -6 0
-11 -9 -11 -9 0 -15 -6 -13 -12 6 -18 49 -22 60 -6 7 9 8 7 3 -7 -16 -44 -17
-55 -6 -55 6 0 11 -7 11 -15 0 -8 4 -15 9 -15 5 0 12 -16 15 -35 4 -19 11 -35
15 -35 5 0 11 -27 14 -59 3 -35 13 -70 23 -84 22 -28 60 -48 80 -40 8 3 14 0
14 -6 0 -6 7 -11 15 -11 8 0 12 6 9 14 -8 20 12 29 28 13 7 -7 40 -27 73 -43
53 -27 68 -30 135 -28 113 5 120 5 115 14 -3 4 8 10 24 13 16 3 36 13 44 22 9
8 24 15 35 15 10 0 22 3 26 7 7 7 9 8 61 19 31 7 102 62 97 76 -1 4 3 8 9 8
16 0 71 41 65 48 -3 3 -1 11 5 18 8 10 5 19 -15 37 -14 13 -27 35 -30 50 -2
15 -7 31 -11 37 -3 5 -1 10 6 10 7 0 5 8 -6 20 -10 11 -24 20 -32 20 -8 0 -13
12 -13 30 0 17 0 33 0 37 0 3 17 8 37 10 21 2 44 6 51 8 7 3 21 -4 32 -15 30
-30 48 -23 41 14 -4 17 9 56 18 56 5 0 8 -17 9 -37 0 -21 4 -114 10 -207 5
-93 8 -213 7 -265 -4 -100 1 -144 15 -136 5 3 11 31 15 63 12 118 16 142 25
142 11 0 23 -38 22 -72 0 -16 1 -28 3 -28 2 0 13 29 25 64 18 55 20 79 15 158
-3 54 -12 99 -19 108 -14 16 -10 40 7 52 7 4 7 20 -2 47 -6 23 -9 46 -6 51 3
5 8 28 11 52 3 24 19 66 34 93 28 50 60 156 60 200 0 13 9 30 20 38 16 11 22
32 30 108 5 52 10 117 10 144 0 28 4 55 8 62 6 9 61 7 242 -9 129 -11 301 -22
381 -24 81 -2 153 -6 160 -8 30 -10 180 -26 284 -32 61 -3 143 -10 183 -15 91
-11 252 -12 252 -1 0 12 240 12 262 1 12 -6 18 -6 18 1 0 5 9 10 19 10 11 0
23 5 26 10 4 6 11 8 16 5 14 -10 11 13 -7 40 -9 14 -26 25 -38 25 -12 0 -27 5
-34 12 -9 9 -24 8 -66 -2 -29 -7 -59 -10 -65 -6 -6 4 -20 2 -31 -4 -23 -12
-137 -15 -187 -4 -20 4 -33 2 -33 -4 0 -5 -19 -12 -42 -15 -24 -3 -79 -10
-123 -16 -83 -10 -185 -5 -185 10 0 5 6 9 13 9 6 0 20 12 30 25 26 35 10 60
-40 61 -21 0 -62 2 -90 2 -29 1 -53 6 -53 12 0 22 131 41 179 25 14 -4 21 0
26 15 8 26 31 26 38 -1 3 -12 10 -18 15 -15 5 3 15 0 21 -8 9 -11 6 -15 -14
-20 -16 -4 -25 -13 -25 -26 0 -11 4 -20 9 -20 5 0 17 -3 27 -7 11 -4 15 -3 10
5 -4 7 3 6 19 -2 19 -10 38 -11 73 -4 26 5 104 10 173 11 85 2 131 7 142 15 9
7 26 10 40 7 14 -4 28 -2 31 4 4 6 32 11 62 11 l54 0 -22 34 c-19 28 -24 31
-36 20 -16 -17 -85 -18 -114 -3 -21 11 -21 12 -3 25 18 14 18 14 -1 28 -18 14
-18 17 -4 43 9 15 21 28 28 28 7 0 12 5 13 10 1 15 -34 65 -46 65 -6 0 -16 9
-23 21 -11 17 -11 20 0 13 19 -12 -84 117 -171 215 -101 112 -239 251 -251
251 -6 0 -10 -13 -10 -28 0 -32 -29 -81 -30 -50 0 9 -5 20 -11 24 -17 10 -39
-19 -46 -62 -6 -36 -17 -53 -35 -54 -5 0 -8 5 -8 12 0 26 -52 85 -91 102 -34
15 -45 16 -69 6 -16 -7 -37 -9 -47 -6 -11 5 -24 -2 -38 -20 l-21 -26 -38 19
-38 19 27 32 c26 31 26 32 6 32 -24 0 -25 1 -9 35 10 21 9 27 -7 39 -17 13
-18 15 -1 55 9 23 13 47 10 53 -5 7 8 8 42 3 27 -4 46 -4 42 0 -10 10 11 47
22 40 4 -3 11 1 14 7 5 10 7 10 12 1 3 -7 12 -13 20 -13 7 0 20 -12 28 -27 16
-31 50 -63 67 -63 5 0 7 -6 4 -12 -4 -7 2 -2 13 12 20 23 20 26 4 43 -9 11
-68 58 -130 105 l-113 85 -30 -34 -30 -34 6 51 5 52 -90 57 c-82 52 -93 56
-130 50 -52 -9 -66 0 -46 30 14 21 13 23 -9 33 -29 14 -95 4 -102 -15 -4 -10
-11 -7 -30 11 -22 22 -31 24 -75 20 -28 -3 -68 -15 -89 -26 -39 -20 -59 -18
-59 8 0 19 -26 18 -34 -2 -17 -43 -8 -53 42 -50 27 2 61 1 76 -1 54 -11 3 -23
-95 -23 l-97 0 7 33 c14 59 12 263 -1 274 -20 16 -138 57 -144 50 -8 -8 -23
-250 -24 -383 0 -104 -13 -213 -29 -241 -5 -9 -21 -3 -56 22 -27 20 -52 39
-55 43 -3 4 -21 19 -40 32 -19 13 -37 27 -40 30 -3 3 -22 16 -42 30 -21 14
-43 35 -49 48 -7 12 -24 28 -37 35 -41 20 -48 41 -24 68 12 12 22 25 23 28 6
43 2 68 -13 83 -19 19 -19 30 -2 161 3 29 1 38 -8 35 -7 -3 -16 -27 -19 -54
-3 -27 -7 -42 -9 -34 -1 8 -6 -11 -10 -44 -4 -32 -12 -61 -16 -65 -5 -3 -11
-17 -12 -31 -5 -35 -7 -35 -42 -1 l-32 30 26 26 c14 14 26 29 26 32 0 4 -5 2
-12 -5 -18 -18 -28 -15 -28 8 0 11 -7 23 -15 26 -8 4 -15 10 -15 16 0 5 4 6
10 3 6 -3 7 1 4 9 -3 9 -2 16 2 16 5 0 11 54 12 120 4 118 3 120 -20 129 -76
29 -521 91 -650 91 l-68 0 0 -82z m277 -43 c9 -24 -4 -30 -32 -15 -19 10 -22
16 -13 22 20 12 38 9 45 -7z m-87 -55 c6 0 10 5 10 11 0 5 5 7 10 4 14 -9 -14
-35 -38 -35 -14 0 -21 8 -24 30 -5 30 -4 30 14 10 10 -11 23 -20 28 -20z m-55
-10 c3 -5 1 -10 -4 -10 -6 0 -11 5 -11 10 0 6 2 10 4 10 3 0 8 -4 11 -10z
m-635 -171 c0 -6 -7 -6 -20 1 -11 6 -20 15 -20 21 0 6 7 6 20 -1 11 -6 20 -15
20 -21z m-40 -46 c0 -5 -11 -10 -25 -11 -28 -2 -30 1 -13 27 10 16 14 17 25 6
7 -8 13 -17 13 -22z m483 3 c23 -17 22 -25 -3 -19 -25 7 -49 33 -29 33 8 0 22
-7 32 -14z m-579 -11 c6 -17 4 -18 -18 -9 -20 8 -21 24 -2 24 8 0 16 -7 20
-15z m6 -170 c0 -8 -7 -15 -15 -15 -9 0 -12 6 -9 15 4 8 10 15 15 15 5 0 9 -7
9 -15z m156 -15 c8 0 14 -4 14 -10 0 -16 -15 -12 -33 8 -10 10 -14 22 -10 26
5 4 9 1 11 -8 2 -9 10 -16 18 -16z m-444 -2 c-20 -20 -14 -28 14 -18 25 10 25
10 -6 -23 -24 -26 -38 -33 -63 -32 -35 3 -79 -28 -71 -50 4 -9 -8 -15 -37 -20
-25 -4 -37 -10 -29 -15 7 -4 8 -10 3 -13 -6 -4 -20 5 -31 18 -18 20 -19 25 -6
25 19 0 44 23 45 42 0 10 2 10 6 -1 5 -11 7 -11 15 0 7 11 11 11 15 2 2 -7 9
-13 14 -13 6 0 7 6 3 12 -25 40 -7 55 84 73 17 4 32 11 32 16 0 5 5 9 12 9 9
0 9 -3 0 -12z m218 -10 c0 -16 -3 -19 -11 -11 -6 6 -8 16 -5 22 11 17 16 13
16 -11z m-72 -44 c0 -18 -3 -22 -9 -13 -11 18 -11 39 0 39 5 0 9 -12 9 -26z
m132 11 c0 -8 -4 -15 -10 -15 -5 0 -10 7 -10 15 0 8 5 15 10 15 6 0 10 -7 10
-15z m2017 0 c7 -11 29 -15 89 -16 45 -1 86 1 92 5 16 9 21 -5 28 -74 3 -40 1
-66 -6 -75 -9 -11 -9 -23 -1 -48 12 -36 7 -61 -16 -89 -8 -9 -12 -21 -9 -27 4
-6 -5 -13 -19 -17 -27 -7 -35 -24 -11 -24 19 0 28 -15 30 -51 1 -18 -3 -29
-11 -29 -7 0 -13 -11 -13 -24 0 -13 -6 -36 -14 -51 -13 -24 -13 -31 0 -50 14
-21 13 -24 -13 -44 -23 -16 -24 -20 -10 -21 12 0 17 -6 15 -17 -2 -13 -13 -18
-33 -18 -29 0 -30 1 -27 45 2 25 8 49 13 54 14 15 11 26 -6 20 -11 -5 -17 3
-21 25 -4 18 -15 36 -26 42 -28 15 -12 28 26 22 24 -4 35 -1 39 11 3 8 1 19
-5 22 -7 4 -14 2 -16 -4 -5 -15 -42 -16 -42 -2 0 6 7 10 15 10 17 0 19 9 7 27
-10 16 -73 24 -88 12 -8 -7 -14 -1 -18 16 -4 15 -16 27 -31 31 -24 6 -29 14
-26 42 1 6 -2 12 -8 12 -5 0 -11 -6 -14 -12 -2 -7 -4 1 -3 17 0 17 5 33 10 36
4 4 9 55 10 114 2 101 4 108 27 126 29 22 75 25 86 4z m348 6 c3 -5 1 -12 -5
-16 -13 -8 -13 -45 0 -45 6 0 15 11 21 24 10 22 17 23 94 24 l83 0 5 -31 c4
-22 0 -36 -11 -44 -14 -12 -14 -13 0 -13 25 0 30 -29 8 -47 -17 -15 -17 -19
-4 -44 8 -15 14 -37 14 -48 0 -13 13 -25 40 -37 27 -12 46 -30 62 -60 21 -41
21 -44 5 -62 -10 -11 -15 -26 -11 -36 3 -9 1 -22 -5 -29 -6 -9 -8 -25 -3 -43
12 -42 4 -62 -29 -79 -27 -15 -42 -55 -19 -55 6 0 10 -9 10 -19 0 -14 5 -18
19 -14 19 5 47 -28 35 -40 -3 -2 -10 -27 -17 -53 -11 -46 -14 -49 -41 -46 -27
4 -28 2 -22 -25 4 -15 16 -37 26 -48 14 -16 17 -33 14 -80 -2 -33 -3 -63 -4
-67 0 -5 -6 -8 -13 -8 -7 0 -18 -9 -25 -20 -9 -15 -23 -20 -57 -20 -38 0 -45
-3 -45 -20 0 -11 -4 -20 -10 -20 -5 0 -10 -7 -10 -15 0 -8 9 -15 20 -15 23 0
27 -22 6 -39 -16 -14 -46 -4 -46 15 0 22 -42 39 -100 39 -48 0 -55 2 -55 20 0
17 8 20 53 23 30 2 59 -2 67 -8 16 -13 65 4 65 24 0 7 9 20 20 27 20 14 20 15
3 39 -19 27 -21 34 -27 100 -5 57 -25 112 -38 104 -6 -4 -8 -32 -6 -66 3 -41
1 -61 -8 -65 -8 -3 -10 -22 -7 -61 5 -53 3 -58 -18 -70 -19 -10 -33 -9 -69 2
-55 16 -58 25 -58 214 -1 154 0 156 77 168 41 6 43 8 26 20 -13 10 -22 11 -29
4 -14 -14 -53 -12 -59 3 -7 20 4 37 23 37 30 0 32 17 4 24 -22 6 -25 11 -20
32 8 29 -16 43 -39 24 -8 -7 -22 -10 -30 -6 -18 7 -20 33 -2 39 8 3 6 10 -8
21 -20 16 -20 16 5 36 33 26 45 20 45 -23 0 -21 1 -37 1 -37 1 0 18 7 37 15
20 8 42 12 50 10 7 -3 24 -1 38 4 20 8 16 10 -29 10 -49 1 -53 3 -50 24 3 19
10 23 63 28 60 6 49 14 -13 10 -22 -2 -34 3 -39 15 -10 26 24 45 74 41 24 -2
43 0 43 5 0 4 -27 8 -61 8 -57 0 -60 1 -57 23 3 19 10 23 68 28 l65 6 -53 1
c-52 2 -53 3 -50 30 3 25 7 27 58 33 56 6 42 14 -18 10 -22 -2 -34 3 -38 14
-10 25 6 34 63 37 70 4 68 18 -2 18 -52 0 -55 1 -55 25 0 20 -5 25 -25 25 -22
0 -24 -3 -15 -20 8 -15 6 -21 -10 -30 -27 -14 -37 -7 -42 32 -7 47 9 98 35
108 29 12 55 12 62 1z m-2728 -87 c-3 -3 -12 -4 -19 -1 -8 3 -5 6 6 6 11 1 17
-2 13 -5z m58 -14 c3 -5 1 -10 -4 -10 -6 0 -11 5 -11 10 0 6 2 10 4 10 3 0 8
-4 11 -10z m-101 -36 c5 -13 3 -14 -6 -7 -7 6 -20 13 -28 16 -10 4 -8 6 6 6
12 1 25 -6 28 -15z m3094 -14 c2 -14 -42 -41 -75 -46 -19 -3 -20 45 -2 56 19
12 74 5 77 -10z m-378 -41 c0 -5 -9 -13 -20 -19 -16 -9 -22 -8 -26 5 -9 23 15
48 32 34 8 -6 14 -15 14 -20z m-2770 11 c0 -5 -4 -10 -10 -10 -5 0 -7 -7 -4
-15 4 -10 0 -15 -15 -15 -16 0 -21 6 -21 25 0 20 5 25 25 25 14 0 25 -4 25
-10z m3157 -103 c10 -37 10 -39 -2 -22 -8 11 -22 28 -31 37 -10 10 -14 24 -10
34 9 25 27 4 43 -49z m-399 25 c3 -16 -2 -22 -16 -22 -22 0 -32 17 -24 38 7
20 37 9 40 -16z m-10 -57 c1 -21 -3 -25 -23 -25 -14 0 -25 4 -25 9 0 43 44 58
48 16z m-2918 -15 c0 -5 -5 -10 -11 -10 -5 0 -7 5 -4 10 3 6 8 10 11 10 2 0 4
-4 4 -10z m2908 -57 c-4 -22 -48 -31 -48 -10 0 19 10 27 32 27 13 0 18 -6 16
-17z m702 -178 c0 -8 -7 -15 -15 -15 -8 0 -15 7 -15 15 0 8 7 15 15 15 8 0 15
-7 15 -15z m-730 -9 c0 -7 -7 -19 -16 -27 -13 -10 -17 -10 -24 1 -4 7 -6 19
-3 27 7 17 43 17 43 -1z m-3214 -22 c18 -14 18 -15 -6 -8 -31 8 -50 24 -29 24
8 0 24 -7 35 -16z m3199 -43 c7 -12 -12 -24 -25 -16 -11 7 -4 25 10 25 5 0 11
-4 15 -9z m775 -21 c0 -5 -4 -10 -10 -10 -5 0 -10 5 -10 10 0 6 5 10 10 10 6
0 10 -4 10 -10z m-210 -25 c0 -8 -4 -15 -10 -15 -5 0 -10 7 -10 15 0 8 5 15
10 15 6 0 10 -7 10 -15z m-637 -68 c-3 -5 -10 -4 -15 1 -6 6 -7 16 -3 22 6 9
9 9 16 -1 4 -7 5 -17 2 -22z m1265 -109 c3 -29 -1 -38 -17 -43 -32 -10 -43 3
-35 38 9 43 13 49 32 45 12 -2 18 -15 20 -40z m-461 -32 c3 -48 -11 -91 -27
-81 -9 5 -9 10 -10 78 -1 75 32 78 37 3z m603 -66 c0 -5 -4 -10 -10 -10 -5 0
-10 5 -10 10 0 6 5 10 10 10 6 0 10 -4 10 -10z m-4715 -90 c-3 -5 -13 -10 -21
-10 -8 0 -14 5 -14 10 0 6 9 10 21 10 11 0 17 -4 14 -10z m4340 -11 c7 -22 -7
-39 -33 -39 -16 0 -26 25 -18 45 8 23 44 18 51 -6z m299 -6 c8 -16 15 -22 16
-15 0 16 37 16 43 -1 8 -22 -8 -38 -34 -33 -13 2 -29 0 -35 -5 -7 -6 -18 -1
-29 11 -16 18 -17 23 -5 45 17 32 26 31 44 -2z m-2 -99 c28 -8 9 -31 -30 -38
-67 -10 -101 11 -69 43 11 11 49 10 99 -5z m-1132 -4 c0 -5 -4 -10 -10 -10 -5
0 -10 5 -10 10 0 6 5 10 10 10 6 0 10 -4 10 -10z m1330 6 c0 -3 -4 -8 -10 -11
-5 -3 -10 -1 -10 4 0 6 5 11 10 11 6 0 10 -2 10 -4z m-1114 -45 c-8 -13 -36
-15 -36 -3 0 4 5 13 12 20 14 14 34 0 24 -17z m299 -21 c0 -12 -15 -15 -70
-15 -85 0 -125 5 -125 15 0 12 35 17 120 16 60 -1 75 -4 75 -16z m115 0 c0 -5
-13 -10 -30 -10 -16 0 -30 5 -30 10 0 6 14 10 30 10 17 0 30 -4 30 -10z m-456
-30 c76 -29 -24 -40 -144 -16 l-65 13 65 5 c36 2 77 5 92 6 15 1 38 -2 52 -8z
m-1147 -796 c-3 -3 -12 -4 -19 -1 -8 3 -5 6 6 6 11 1 17 -2 13 -5z m147 -133
c29 -32 2 -117 -46 -144 -26 -15 -29 -20 -17 -28 11 -7 9 -9 -8 -9 -12 0 -25
5 -28 10 -3 6 -16 10 -29 10 -38 0 -37 11 6 45 37 30 77 92 78 123 0 18 25 15
44 -7z m-314 -92 c0 -5 -7 -9 -15 -9 -9 0 -15 9 -15 21 0 18 2 19 15 9 8 -7
15 -16 15 -21z m40 -29 c13 -8 13 -10 -2 -10 -9 0 -20 5 -23 10 -8 13 5 13 25
0z m-193 -26 c-3 -3 -12 -4 -19 -1 -8 3 -5 6 6 6 11 1 17 -2 13 -5z m125 -26
c-9 -9 -15 -9 -24 0 -9 9 -7 12 12 12 19 0 21 -3 12 -12z m163 -18 c-3 -5 -12
-10 -20 -10 -8 0 -17 5 -20 10 -4 6 5 10 20 10 15 0 24 -4 20 -10z m52 4 c-3
-3 -12 -4 -19 -1 -8 3 -5 6 6 6 11 1 17 -2 13 -5z"/>
<path d="M5650 7484 c0 -8 5 -12 10 -9 6 3 10 10 10 16 0 5 -4 9 -10 9 -5 0
-10 -7 -10 -16z"/>
<path d="M5626 7422 c-7 -11 -26 -119 -27 -152 -2 -43 1 -50 15 -44 18 7 28
53 30 137 1 61 -4 81 -18 59z"/>
<path d="M5670 7240 c0 -5 16 -10 35 -10 19 0 35 5 35 10 0 6 -16 10 -35 10
-19 0 -35 -4 -35 -10z"/>
<path d="M5776 6967 c3 -10 9 -15 12 -12 3 3 0 11 -7 18 -10 9 -11 8 -5 -6z"/>
<path d="M6193 7253 c-7 -2 -13 -11 -13 -18 0 -7 -16 -19 -36 -25 -33 -11 -35
-14 -19 -23 23 -13 75 -19 75 -9 0 4 4 24 9 45 9 37 7 40 -16 30z"/>
<path d="M6151 7125 l-35 -12 35 -6 c36 -5 60 7 44 21 -6 5 -25 3 -44 -3z"/>
<path d="M6150 7055 c0 -9 -7 -26 -15 -38 -13 -20 -13 -24 5 -35 23 -14 27 -8
36 46 5 35 4 42 -10 42 -9 0 -16 -7 -16 -15z"/>
<path d="M5985 7000 c-3 -5 -1 -10 4 -10 6 0 11 5 11 10 0 6 -2 10 -4 10 -3 0
-8 -4 -11 -10z"/>
<path d="M6011 6941 c-9 -6 -7 -10 8 -14 12 -3 21 -1 21 3 0 14 -15 19 -29 11z"/>
<path d="M6148 6945 c-4 -4 -22 -11 -40 -15 l-33 -8 33 -1 c18 -1 32 -6 32
-13 0 -9 3 -9 11 -1 6 6 9 19 7 28 -1 9 -6 14 -10 10z"/>
<path d="M6135 6880 c-3 -5 -1 -10 4 -10 6 0 11 5 11 10 0 6 -2 10 -4 10 -3 0
-8 -4 -11 -10z"/>
<path d="M6098 6863 c7 -3 16 -2 19 1 4 3 -2 6 -13 5 -11 0 -14 -3 -6 -6z"/>
<path d="M5152 8018 c-17 -17 -15 -49 2 -42 20 8 39 54 23 54 -7 0 -18 -5 -25
-12z"/>
<path d="M5370 7980 c0 -5 7 -10 16 -10 8 0 12 5 9 10 -3 6 -10 10 -16 10 -5
0 -9 -4 -9 -10z"/>
<path d="M5382 7718 c-14 -14 -16 -48 -4 -48 12 0 42 34 42 48 0 16 -23 15
-38 0z"/>
<path d="M5935 7680 c-3 -5 -1 -10 4 -10 6 0 11 5 11 10 0 6 -2 10 -4 10 -3 0
-8 -4 -11 -10z"/>
<path d="M3701 7671 c-9 -6 -9 -10 1 -18 27 -20 34 -21 35 -3 2 21 -18 32 -36
21z"/>
<path d="M3650 7660 c0 -5 5 -10 11 -10 5 0 7 5 4 10 -3 6 -8 10 -11 10 -2 0
-4 -4 -4 -10z"/>
<path d="M3690 7630 c0 -5 5 -10 10 -10 6 0 10 5 10 10 0 6 -4 10 -10 10 -5 0
-10 -4 -10 -10z"/>
<path d="M3180 7600 c0 -5 5 -10 10 -10 6 0 10 5 10 10 0 6 -4 10 -10 10 -5 0
-10 -4 -10 -10z"/>
<path d="M2227 7543 c-4 -3 -7 -17 -7 -30 0 -27 -15 -30 -28 -7 -13 23 -63 6
-79 -26 -7 -13 -20 -27 -31 -31 -14 -5 -17 -15 -14 -42 l4 -34 70 5 71 5 -7
-36 c-22 -119 -18 -237 9 -237 23 0 17 -33 -10 -58 -21 -21 -26 -22 -31 -8 -7
18 -49 22 -59 6 -3 -5 -18 -10 -32 -10 l-25 0 6 -132 c6 -125 8 -134 31 -153
20 -16 24 -31 27 -80 l3 -60 80 -1 c44 0 90 -4 103 -8 16 -5 24 -3 28 9 4 9 1
94 -5 188 -7 95 -16 237 -21 317 -5 80 -15 209 -21 288 -12 135 -14 142 -34
142 -12 0 -25 -3 -28 -7z m-64 -550 c13 -8 7 -20 -15 -31 -17 -8 -19 -11 -6
-11 12 -1 18 -14 23 -51 7 -51 1 -74 -18 -67 -7 2 -18 -3 -24 -12 -11 -14 -14
-14 -23 -1 -10 14 -12 167 -3 183 4 6 48 0 66 -10z m77 -3 c0 -10 -8 -24 -17
-29 -17 -10 -17 -10 0 -11 22 0 23 -36 1 -44 -30 -12 -35 -6 -30 37 2 23 5 48
5 55 2 21 41 14 41 -8z m-50 -195 c0 -8 -4 -15 -10 -15 -5 0 -10 7 -10 15 0 8
5 15 10 15 6 0 10 -7 10 -15z m50 -55 c0 -23 -4 -24 -31 -9 -23 12 -16 29 12
29 12 0 19 -7 19 -20z"/>
<path d="M2918 7363 c7 -3 16 -2 19 1 4 3 -2 6 -13 5 -11 0 -14 -3 -6 -6z"/>
<path d="M2930 7290 c0 -5 7 -7 15 -4 8 4 15 8 15 10 0 2 -7 4 -15 4 -8 0 -15
-4 -15 -10z"/>
<path d="M2080 7270 c0 -5 5 -10 10 -10 6 0 10 5 10 10 0 6 -4 10 -10 10 -5 0
-10 -4 -10 -10z"/>
<path d="M1497 7253 c-11 -10 -8 -51 3 -55 6 -2 13 -21 16 -43 l5 -40 -20 24
c-12 13 -21 29 -21 36 0 7 -7 18 -15 25 -17 14 -35 0 -192 -151 -61 -59 -90
-94 -87 -104 4 -8 1 -16 -5 -16 -6 -1 -15 -2 -20 -3 -6 0 -16 -7 -22 -13 -10
-10 -5 -13 29 -13 36 0 41 -2 30 -14 -8 -8 -25 -11 -45 -9 -18 3 -40 0 -50 -6
-14 -8 -2 -10 50 -11 61 0 86 -11 55 -24 -9 -3 -8 -9 6 -20 10 -8 15 -20 11
-25 -3 -6 1 -14 9 -17 9 -3 16 -17 16 -29 0 -13 5 -27 10 -30 6 -4 8 -10 5
-15 -3 -5 0 -12 6 -16 9 -5 10 0 6 17 -4 13 -14 61 -24 105 -15 75 -15 83 -1
98 23 22 25 21 38 -19 6 -19 15 -33 20 -30 11 7 0 116 -13 133 -5 7 -7 16 -3
19 4 4 10 3 14 -3 4 -6 24 -14 44 -18 33 -6 39 -11 48 -46 12 -43 28 -54 25
-17 -4 61 -19 107 -35 112 -10 3 -20 14 -23 25 -4 16 2 21 29 26 19 3 51 4 71
0 21 -3 52 -7 68 -8 l30 -3 -3 50 c-5 84 -41 153 -65 128z"/>
<path d="M1680 7210 c0 -5 7 -10 15 -10 8 0 15 5 15 10 0 6 -7 10 -15 10 -8 0
-15 -4 -15 -10z"/>
<path d="M2516 7211 c-4 -7 -5 -15 -2 -18 9 -9 19 4 14 18 -4 11 -6 11 -12 0z"/>
<path d="M1522 7043 c-15 -15 -16 -14 26 -18 37 -3 41 6 9 21 -18 8 -26 7 -35
-3z"/>
<path d="M1690 7028 c0 -12 3 -17 8 -12 4 5 11 12 15 15 5 3 2 9 -7 12 -12 5
-16 0 -16 -15z"/>
<path d="M1650 7006 c0 -8 5 -18 10 -21 6 -3 10 1 10 9 0 8 -4 18 -10 21 -5 3
-10 -1 -10 -9z"/>
<path d="M1064 6824 c3 -9 9 -27 12 -40 6 -24 15 -30 27 -17 4 3 -1 12 -11 19
-15 12 -15 15 -2 24 13 9 13 11 0 20 -22 14 -33 12 -26 -6z"/>
<path d="M1090 6732 c0 -4 5 -25 11 -46 8 -28 13 -35 19 -25 5 8 4 19 -2 26
-5 7 -8 19 -5 27 3 8 -1 17 -9 20 -8 3 -14 2 -14 -2z"/>
<path d="M1399 6658 c-17 -7 -35 -32 -57 -78 -36 -74 -46 -113 -38 -146 5 -20
11 -22 41 -17 37 6 33 11 50 -71 3 -15 -2 -29 -14 -40 -12 -11 -17 -25 -13
-38 4 -17 2 -20 -13 -15 -13 6 -16 3 -11 -9 3 -8 6 -43 6 -75 0 -56 2 -60 20
-54 15 5 18 3 14 -9 -3 -9 -16 -16 -29 -16 -12 0 -28 -7 -35 -15 -11 -13 -10
-15 6 -13 11 2 20 -1 22 -7 1 -5 -2 -10 -6 -10 -14 0 -42 -33 -42 -48 0 -9 -6
-18 -12 -20 -10 -4 -10 -6 0 -6 7 -1 18 10 24 24 6 14 15 25 20 25 12 0 10
-28 -3 -35 -24 -16 1 -26 74 -30 42 -2 77 -2 77 0 0 3 -19 14 -42 26 -24 12
-44 23 -46 24 -2 2 8 22 23 45 15 23 24 48 21 56 -3 7 -1 16 5 19 5 4 12 0 15
-8 4 -11 14 -12 49 -4 25 6 45 15 45 21 0 5 6 1 14 -9 12 -16 16 -17 30 -6 15
12 20 8 17 -11 0 -5 3 -8 8 -8 14 0 18 73 8 158 -12 105 -14 114 -32 137 -9
11 -14 14 -10 8 3 -7 1 -13 -5 -13 -7 0 -9 7 -6 17 5 11 0 23 -14 33 -19 15
-21 21 -12 53 10 37 9 54 -10 119 -15 52 -74 71 -139 46z"/>
<path d="M1275 6640 c-3 -5 -1 -10 4 -10 6 0 11 5 11 10 0 6 -2 10 -4 10 -3 0
-8 -4 -11 -10z"/>
<path d="M1290 6590 c0 -5 5 -10 10 -10 6 0 10 5 10 10 0 6 -4 10 -10 10 -5 0
-10 -4 -10 -10z"/>
<path d="M1183 6499 c0 -22 -5 -45 -12 -52 -17 -17 -13 -27 9 -27 18 0 20 7
20 60 0 33 -4 60 -9 60 -4 0 -8 -18 -8 -41z"/>
<path d="M1281 6240 c-1 -61 7 -100 20 -100 12 0 12 83 0 96 -5 5 -11 20 -14
34 -2 14 -5 0 -6 -30z"/>
<path d="M1330 6280 c0 -5 5 -10 10 -10 6 0 10 5 10 10 0 6 -4 10 -10 10 -5 0
-10 -4 -10 -10z"/>
<path d="M1166 6041 c-3 -5 -1 -23 5 -40 6 -17 8 -38 5 -46 -4 -11 2 -15 24
-15 35 0 38 12 10 47 -11 14 -20 34 -20 44 0 20 -15 26 -24 10z"/>
<path d="M1630 5915 c-14 -17 -22 -95 -9 -95 26 0 57 65 45 95 -7 19 -20 19
-36 0z"/>
<path d="M1166 5902 c-7 -12 5 -82 14 -82 5 0 10 4 12 9 2 5 92 11 201 14 109
2 202 8 207 13 5 5 5 15 1 23 -6 10 -37 12 -127 10 -66 -1 -150 -1 -187 0 -41
1 -74 -3 -83 -10 -11 -9 -14 -7 -14 10 0 21 -14 29 -24 13z"/>
<path d="M1295 5819 l-80 -5 65 -2 c100 -3 104 -6 129 -75 11 -34 21 -69 21
-78 0 -9 6 -22 14 -28 44 -37 78 -160 51 -187 -22 -22 -59 -14 -63 14 -4 26
-20 29 -37 6 -11 -15 -14 -15 -36 -1 -26 16 -159 30 -159 16 0 -5 -13 -6 -30
-2 -18 3 -30 1 -30 -5 0 -5 -10 -12 -23 -16 -35 -8 -51 -64 -42 -152 7 -76 25
-108 47 -86 7 7 35 11 63 11 27 -1 41 -3 30 -6 -11 -2 -31 -6 -44 -9 -14 -3
-21 -8 -15 -12 12 -9 34 -73 34 -101 0 -12 8 -41 19 -64 10 -23 21 -50 24 -60
5 -14 11 -16 26 -7 11 5 47 11 80 12 33 1 58 5 55 10 -3 4 2 8 10 8 8 0 18 -4
21 -10 3 -5 15 -10 26 -10 10 0 19 5 19 10 0 6 6 10 14 10 26 0 23 24 -5 47
-15 13 -38 23 -51 23 -13 0 -29 5 -36 12 -18 18 -15 55 6 68 16 9 16 11 -1 21
-9 5 -15 14 -12 20 4 5 -1 9 -9 9 -9 0 -16 4 -16 9 0 6 -21 12 -47 14 -47 3
-47 3 10 5 32 1 56 -2 53 -7 -7 -11 43 -21 105 -21 26 0 51 -4 54 -10 9 -15
78 -12 101 4 31 24 7 37 -46 25 -32 -7 -50 -7 -67 2 -31 17 -12 39 33 39 25 0
34 5 40 23 5 12 7 27 5 32 -7 23 -6 253 1 240 15 -26 38 -209 28 -219 -15 -15
-12 -26 5 -20 11 5 15 -1 15 -20 0 -14 4 -26 9 -26 15 0 22 18 10 25 -7 5 -1
17 17 36 l27 28 -7 116 c-4 76 -12 125 -21 139 -8 13 -21 57 -27 99 l-13 77
-98 0 c-92 0 -98 1 -92 19 6 21 -4 21 -160 10z m25 -414 c9 -11 22 -14 40 -10
19 4 33 1 44 -10 10 -10 16 -12 16 -4 0 9 3 9 14 0 11 -9 15 -9 19 1 2 7 8 10
12 6 5 -5 3 -19 -3 -33 -10 -21 -19 -25 -52 -25 -34 0 -42 4 -52 26 -7 15 -23
27 -39 31 -15 3 -30 11 -33 19 -7 19 18 18 34 -1z m-105 -25 c3 -5 0 -10 -7
-10 -7 -1 1 -8 17 -18 29 -16 29 -17 7 -20 -36 -5 -55 6 -49 28 3 10 0 21 -7
24 -6 2 -1 5 11 5 12 1 25 -3 28 -9z m82 -197 c2 -6 -5 -14 -16 -18 -24 -7
-28 -25 -6 -25 15 0 20 -26 9 -54 -3 -9 -10 -16 -15 -16 -10 0 -29 66 -29 103
0 25 3 28 27 25 14 -2 28 -8 30 -15z m58 -82 c-9 -16 -25 -3 -18 15 4 10 9 12
15 6 6 -6 7 -15 3 -21z"/>
<path d="M3789 5676 c-2 -2 -38 -6 -79 -9 -41 -3 -93 -11 -115 -19 -22 -8 -64
-13 -93 -12 -39 2 -65 -3 -95 -20 -127 -68 -186 -121 -220 -198 -25 -56 -25
-56 -4 -62 11 -3 28 -1 38 5 26 13 91 10 113 -6 17 -13 17 -15 -9 -42 -44 -47
-76 -110 -82 -162 -4 -43 -2 -51 17 -61 11 -6 34 -9 49 -5 20 4 34 0 53 -18
15 -14 38 -27 52 -31 14 -3 26 -11 26 -16 0 -6 13 -10 29 -10 21 0 32 -6 36
-20 3 -11 11 -20 16 -20 5 0 19 -10 30 -21 14 -14 40 -24 73 -28 69 -9 196 6
216 24 9 8 24 15 33 15 9 0 17 4 17 9 0 5 14 14 31 22 28 11 33 10 44 -4 15
-21 24 -21 45 -2 9 8 33 17 54 20 55 6 110 65 131 138 9 32 21 57 26 57 5 0 8
3 7 8 -7 34 47 163 80 191 12 10 14 15 5 18 -18 7 -16 33 2 33 11 0 15 11 15
36 0 31 -3 35 -20 29 -22 -7 -26 5 -8 23 9 9 8 15 -7 26 -14 10 -22 11 -27 3
-4 -7 -15 -2 -32 16 -13 14 -26 22 -28 16 -2 -6 -16 1 -31 15 -35 33 -73 40
-217 41 -99 1 -129 5 -161 21 -3 2 -8 2 -10 0z m-239 -461 c0 -21 28 -75 53
-102 l20 -23 -26 0 c-14 0 -37 -4 -51 -9 -18 -7 -28 -6 -36 5 -7 7 -18 14 -25
14 -11 0 -35 48 -35 71 0 11 71 58 88 58 6 1 12 -6 12 -14z m260 -85 c0 -5 -5
-10 -11 -10 -5 0 -7 5 -4 10 3 6 8 10 11 10 2 0 4 -4 4 -10z m-293 -76 c-3 -3
-12 -4 -19 -1 -8 3 -5 6 6 6 11 1 17 -2 13 -5z"/>
<path d="M1660 5232 c0 -24 13 -42 31 -42 12 0 19 -7 19 -20 0 -27 26 -25 34
3 10 38 7 45 -21 49 -16 3 -36 9 -45 13 -11 4 -18 3 -18 -3z"/>
<path d="M1685 5080 c-3 -5 -37 -10 -76 -10 -72 0 -76 -2 -56 -35 12 -21 29
-26 43 -12 4 4 22 7 40 7 25 0 38 7 54 30 12 17 17 30 11 30 -5 0 -13 -4 -16
-10z"/>
<path d="M2730 4674 c0 -14 35 -64 49 -69 21 -8 32 7 18 25 -14 18 -67 53 -67
44z"/>
<path d="M2897 4663 c-7 -12 11 -53 23 -53 15 0 12 36 -4 49 -8 7 -16 8 -19 4z"/>
<path d="M2967 4434 c-20 -41 -10 -67 16 -45 21 17 27 47 13 66 -10 14 -14 11
-29 -21z"/>
<path d="M105 4350 c-25 -28 -11 -71 28 -81 24 -6 27 -5 27 17 0 22 -25 84
-34 84 -1 0 -11 -9 -21 -20z"/>
<path d="M4634 4321 c-10 -10 -29 -29 -41 -42 -43 -47 -51 -50 -143 -51 -71
-1 -94 2 -108 15 -10 10 -22 17 -26 17 -4 0 -12 5 -19 10 -54 46 -63 50 -104
50 -45 0 -122 -32 -136 -56 -4 -8 -25 -15 -45 -15 -20 -1 -29 -3 -19 -6 9 -2
17 -12 17 -22 0 -9 9 -24 20 -34 11 -9 20 -25 20 -34 0 -14 2 -15 9 -5 6 11
11 10 25 -3 22 -22 20 -38 -4 -30 -34 11 -22 -3 20 -25 22 -11 40 -25 40 -31
0 -6 5 -7 10 -4 6 3 10 2 10 -3 0 -5 11 -14 24 -21 19 -11 30 -11 58 -1 31 12
38 10 76 -14 32 -20 49 -24 74 -19 44 8 69 21 93 49 11 13 35 26 53 30 17 4
32 10 32 15 0 5 6 9 13 9 7 0 19 6 25 12 7 7 20 13 29 13 9 0 18 6 20 13 3 6
-2 12 -11 12 -9 0 -16 7 -16 15 0 8 8 15 18 15 10 0 35 15 55 34 29 26 37 41
37 68 0 29 -4 36 -33 46 -44 16 -50 15 -73 -7z"/>
<path d="M161 4136 c-12 -18 -21 -45 -21 -59 0 -38 -32 -52 -72 -33 -50 25
-58 21 -58 -28 0 -39 3 -45 30 -56 48 -20 116 -8 143 25 33 42 46 68 47 92 0
25 -30 93 -41 93 -4 0 -17 -15 -28 -34z"/>
<path d="M4525 3961 c-11 -4 -42 -17 -68 -29 -53 -24 -106 -22 -161 5 -26 14
-36 13 -90 -2 -34 -9 -70 -21 -81 -26 -48 -21 -113 -42 -143 -46 -26 -4 -31
-2 -26 10 5 14 -6 29 -50 65 -20 16 -126 8 -137 -10 -5 -7 -6 -21 -3 -30 4
-13 1 -16 -9 -12 -9 3 -16 -3 -20 -16 -3 -12 -10 -19 -15 -16 -13 8 -52 -85
-52 -125 0 -71 13 -139 26 -139 7 0 15 -13 19 -30 4 -16 11 -30 16 -30 5 0 9
-4 9 -9 0 -19 47 -61 68 -61 11 0 24 -5 27 -10 4 -6 11 -8 16 -5 5 4 9 -1 9
-9 0 -8 14 -23 30 -33 17 -9 30 -23 30 -31 0 -7 6 -12 13 -10 20 4 68 -12 84
-27 10 -11 19 -12 33 -5 10 6 32 10 49 10 16 0 33 5 37 11 8 13 81 4 101 -13
7 -6 13 -8 13 -5 0 3 21 0 47 -8 25 -8 50 -12 54 -9 4 2 10 0 14 -6 6 -10 -15
-13 -72 -10 -24 1 -33 -3 -33 -14 0 -10 -6 -13 -17 -9 -12 5 -14 3 -8 -8 7
-11 6 -12 -7 -2 -17 15 -29 8 -21 -13 3 -8 -5 -16 -21 -20 -14 -3 -26 -10 -26
-14 0 -5 -19 -8 -42 -8 -73 0 -130 -10 -139 -23 -12 -21 -66 -14 -101 13 -18
14 -59 39 -91 56 -32 17 -69 42 -82 54 -13 13 -28 23 -32 23 -19 1 -53 27 -53
40 0 8 -9 15 -19 15 -11 0 -26 8 -33 18 -8 12 -22 18 -38 15 -43 -6 -75 -3
-78 7 -2 6 -8 10 -13 10 -11 0 -1 -80 12 -94 4 -5 3 -19 -2 -33 -6 -17 -5 -25
4 -29 7 -2 14 -19 15 -37 1 -17 10 -37 19 -44 13 -10 14 -17 3 -42 -14 -34 -6
-55 17 -46 12 4 13 2 6 -7 -6 -7 -13 -25 -17 -40 -4 -16 -13 -28 -22 -28 -10
0 -14 6 -11 15 8 19 -8 28 -33 20 -20 -6 -29 -45 -10 -45 6 0 10 -7 10 -15 0
-27 -20 -16 -26 15 -5 20 -12 30 -25 30 -13 0 -17 5 -12 17 4 9 2 14 -3 10
-13 -8 -51 144 -69 273 -8 58 -24 110 -34 110 -12 0 -55 -69 -75 -120 -14 -35
-46 -172 -46 -196 0 -2 -7 -1 -16 3 -10 4 -31 -9 -60 -38 -24 -24 -44 -47 -44
-51 0 -5 -12 -27 -27 -51 -41 -63 -58 -97 -77 -152 -10 -27 -22 -59 -26 -70
-7 -19 -21 -95 -52 -275 -26 -153 -12 -562 22 -630 6 -12 32 -14 151 -12 133
3 270 15 289 27 5 3 46 12 92 21 96 18 163 39 260 82 26 12 86 29 133 39 83
17 85 18 85 46 0 31 11 45 50 65 38 20 56 35 63 54 4 11 12 15 22 12 11 -5 18
0 22 15 3 11 10 21 15 21 5 0 6 -4 3 -10 -6 -9 26 -16 50 -10 6 1 66 3 135 4
75 1 134 7 147 14 30 17 63 15 63 -3 0 -17 26 -10 50 13 11 11 15 12 18 2 3
-7 -2 -16 -9 -21 -8 -5 -9 -9 -4 -9 6 0 -2 -11 -18 -24 -50 -43 -18 -62 148
-86 164 -23 499 -94 520 -110 6 -4 38 -11 73 -15 34 -4 65 -11 68 -16 3 -5 17
-9 32 -9 15 0 36 -6 47 -13 11 -7 49 -24 85 -36 36 -13 71 -28 78 -34 8 -6 16
-6 21 -1 11 13 58 161 67 209 3 22 15 74 26 115 10 41 26 109 33 150 8 41 21
107 30 145 21 98 35 259 28 330 -3 33 -18 100 -35 149 -16 50 -30 115 -31 146
-3 64 -25 106 -63 120 -13 5 -24 14 -24 20 0 5 -6 10 -14 10 -8 0 -39 17 -70
38 -51 34 -56 42 -81 115 -56 162 -150 291 -196 266 -26 -13 -28 -29 -31 -242
-2 -106 -8 -191 -13 -195 -6 -4 -10 -13 -11 -19 -1 -7 -2 -22 -2 -34 -1 -11
-6 -17 -12 -14 -6 4 -10 -7 -10 -25 0 -17 -4 -29 -9 -26 -5 4 -7 -3 -4 -14 3
-12 0 -20 -7 -20 -6 0 -27 -14 -45 -32 -27 -25 -32 -35 -24 -49 5 -10 9 -24 8
-31 0 -7 -4 -4 -9 7 -8 18 -9 17 -9 -8 -1 -15 -8 -30 -16 -33 -8 -4 -13 -10
-10 -14 3 -5 1 -11 -4 -14 -5 -3 -11 1 -15 9 -3 8 -13 15 -21 15 -13 0 -15 -6
-10 -29 5 -23 2 -31 -12 -35 -10 -3 -27 -19 -38 -36 -21 -32 -45 -40 -45 -15
0 9 7 15 16 13 10 -2 20 7 25 21 8 21 7 23 -16 19 -30 -6 -22 10 12 23 21 8
23 12 13 24 -10 12 -7 15 14 21 17 4 26 13 26 25 0 10 7 19 15 19 8 0 15 9 15
19 0 12 -7 18 -17 17 -15 -1 -18 9 -20 64 -1 43 3 73 13 88 9 13 18 42 20 65
3 23 11 45 17 49 9 6 9 8 0 8 -14 0 -62 -56 -76 -90 -16 -38 -77 -99 -93 -93
-10 3 -12 0 -8 -10 3 -10 -2 -20 -15 -26 -17 -9 -30 -5 -75 24 -37 24 -56 31
-59 22 -4 -9 -8 -9 -15 2 -8 11 -10 11 -14 0 -4 -11 -8 -10 -21 3 -10 9 -26
20 -37 23 -11 4 -18 11 -15 16 4 5 -1 9 -10 9 -8 0 -20 11 -25 25 -5 14 -14
25 -20 25 -6 0 -9 4 -6 9 4 5 2 20 -3 33 -13 34 -5 42 64 63 72 22 115 45 115
61 0 7 5 14 11 16 14 5 0 38 -17 38 -19 0 -18 19 2 27 13 5 11 10 -10 28 -14
12 -26 27 -26 32 0 11 31 38 83 73 20 14 37 29 37 33 0 5 7 15 15 23 8 9 15
28 15 44 0 27 4 30 60 45 30 8 47 18 58 36 20 31 -6 56 -53 51 -19 -2 -41 1
-49 7 -30 25 -108 60 -166 75 -65 17 -92 18 -125 7z m-275 -214 c41 -8 79 -12
83 -10 4 3 14 -1 22 -7 12 -10 15 -10 15 0 0 10 14 11 55 6 57 -6 193 18 206
37 4 5 9 4 13 -2 4 -6 3 -11 -2 -11 -5 0 -12 -9 -15 -19 -8 -30 -66 -51 -155
-55 -62 -4 -84 -1 -93 10 -10 12 -14 12 -20 2 -12 -20 -169 -17 -204 3 -5 4
-22 9 -37 13 -16 3 -28 11 -28 16 0 6 -6 10 -14 10 -26 0 -66 26 -55 37 10 10
46 5 229 -30z m-347 -48 c4 -16 11 -20 26 -16 28 7 43 -13 26 -36 -10 -14 -14
-15 -18 -5 -3 8 -6 6 -6 -5 -1 -13 -7 -17 -23 -15 -24 3 -45 54 -35 82 9 23
24 20 30 -5z m-350 -789 c-7 -8 -22 24 -16 34 4 5 10 1 13 -10 4 -10 6 -21 3
-24z m912 -638 c-3 -3 -11 0 -18 7 -9 10 -8 11 6 5 10 -3 15 -9 12 -12z"/>
<path d="M4068 3323 c6 -2 18 -2 25 0 6 3 1 5 -13 5 -14 0 -19 -2 -12 -5z"/>
<path d="M5000 3016 c0 -9 5 -16 10 -16 6 0 10 4 10 9 0 6 -4 13 -10 16 -5 3
-10 -1 -10 -9z"/>
<path d="M4990 2980 c0 -5 5 -10 10 -10 6 0 10 5 10 10 0 6 -4 10 -10 10 -5 0
-10 -4 -10 -10z"/>
<path d="M2310 2830 c0 -5 7 -10 15 -10 8 0 15 5 15 10 0 6 -7 10 -15 10 -8 0
-15 -4 -15 -10z"/>
<path d="M2205 2820 c-3 -6 1 -7 9 -4 18 7 21 14 7 14 -6 0 -13 -4 -16 -10z"/>
<path d="M1773 2633 c-9 -26 -44 -63 -60 -63 -7 0 -13 -4 -13 -9 0 -5 -3 -17
-7 -27 -6 -16 -1 -17 56 -11 34 4 71 12 83 18 18 10 24 8 36 -7 13 -17 14 -17
9 -1 -4 9 -3 17 2 17 8 0 18 -35 23 -77 1 -7 5 -13 10 -13 4 0 8 -6 8 -14 0
-7 11 -30 25 -50 14 -21 21 -35 15 -31 -5 3 -10 -1 -10 -10 0 -9 5 -13 10 -10
6 3 10 -1 10 -9 0 -9 5 -16 10 -16 5 0 9 -3 8 -7 0 -5 6 -25 15 -45 10 -21 17
-45 17 -54 0 -9 10 -30 22 -47 13 -18 21 -32 19 -32 -2 0 -1 -10 3 -22 4 -13
12 -23 17 -23 5 0 9 -5 9 -12 0 -14 73 -168 103 -218 12 -19 23 -43 24 -54 2
-11 8 -23 12 -26 5 -3 22 -30 37 -60 14 -30 34 -63 43 -74 9 -10 15 -21 15
-25 -1 -7 47 -110 59 -126 4 -5 25 -45 47 -88 47 -90 63 -120 70 -127 3 -3 16
-27 30 -55 14 -27 58 -107 98 -177 39 -71 72 -130 72 -132 0 -8 138 -240 167
-281 15 -22 47 -70 70 -107 22 -37 51 -77 62 -89 12 -13 21 -26 21 -31 0 -8
175 -254 197 -276 7 -7 16 -20 21 -28 9 -16 145 -45 326 -69 126 -16 486 -21
486 -6 0 4 -17 28 -38 52 -20 24 -51 62 -67 84 -16 22 -34 45 -40 52 -13 16
-19 24 -98 123 -37 47 -73 92 -80 100 -8 8 -29 38 -47 65 -19 28 -39 55 -45
60 -7 6 -43 55 -81 110 -38 55 -83 120 -101 145 -18 25 -36 52 -40 60 -4 8 -9
17 -12 20 -10 9 -51 69 -51 75 0 4 -10 21 -23 38 -12 18 -28 41 -34 52 -7 11
-40 63 -73 115 -34 52 -67 104 -73 115 -7 11 -14 22 -17 25 -9 8 -92 149 -120
203 -14 26 -58 102 -97 168 -40 66 -73 124 -73 130 0 5 -4 9 -10 9 -5 0 -10 6
-10 13 0 7 -16 37 -36 67 -20 30 -47 74 -60 98 -13 23 -31 53 -38 65 -8 12
-33 56 -54 97 -21 41 -44 74 -50 73 -6 -1 -13 10 -17 26 -6 29 -48 74 -59 64
-3 -4 -6 7 -6 23 0 28 -2 29 -52 32 -28 1 -57 7 -65 14 -11 9 -16 9 -22 -1 -6
-9 -10 -6 -14 11 -9 33 -7 47 3 23 8 -19 9 -19 9 3 1 17 -5 22 -24 22 -14 0
-25 5 -25 11 0 17 -23 35 -54 43 -23 6 -27 4 -23 -8 4 -9 2 -16 -3 -16 -6 0
-10 5 -10 11 0 6 -9 8 -20 4 -15 -5 -20 -2 -20 12 0 11 5 24 12 31 19 19 -15
50 -36 33 -8 -7 -20 -10 -26 -6 -5 3 -10 -1 -10 -11 0 -13 -5 -11 -25 10 -27
29 -25 30 -41 -22 -2 -9 -14 -7 -42 8 -39 20 -127 26 -138 8 -7 -11 -37 21
-52 55 -13 31 -39 36 -49 10z m327 -114 c0 -5 -7 -9 -15 -9 -15 0 -20 12 -9
23 8 8 24 -1 24 -14z m240 -139 c0 -5 -7 -10 -16 -10 -8 0 -12 5 -9 10 3 6 10
10 16 10 5 0 9 -4 9 -10z"/>
<path d="M2100 2620 c0 -5 5 -10 11 -10 5 0 7 5 4 10 -3 6 -8 10 -11 10 -2 0
-4 -4 -4 -10z"/>
<path d="M2290 2589 c0 -5 5 -7 10 -4 6 3 10 8 10 11 0 2 -4 4 -10 4 -5 0 -10
-5 -10 -11z"/>
<path d="M2245 2550 c3 -5 8 -10 11 -10 2 0 4 5 4 10 0 6 -5 10 -11 10 -5 0
-7 -4 -4 -10z"/>
<path d="M2320 2500 c0 -5 5 -10 10 -10 6 0 10 5 10 10 0 6 -4 10 -10 10 -5 0
-10 -4 -10 -10z"/>
<path d="M2536 352 l-27 -29 45 -17 c57 -22 82 -18 79 12 -3 25 -36 62 -56 62
-7 0 -26 -13 -41 -28z"/>
</g>
</svg>
